<svg id="Layer_1" xmlns="http://www.w3.org/2000/svg" viewBox="0 0 600 294.2"><style>.st0{fill:none;stroke:#fff}.st1{opacity:.58;fill:#093454}</style><path class="st0" d="M496.8 294l-369.5.2c-89.1-.4-120-58.2-120-98.4l.5-48.7C7.8 77 52 40.1 96 40.1h414.4c44 0 88.2 41 88.2 114.7v30.1c-.1 66.2-49.7 109.4-101.8 109.1zm3.6-5.8H123.9c-79.4 0-111.4-52.5-111.4-90.9V148c0-67.1 46.2-103 88.9-103H504c42.7 0 88.9 36.6 88.9 107.1v30.6c.1 63.2-47.8 105.5-92.5 105.5zm-173.1-269l-3.8-16.8S315.7 0 300.7 0s-21.1 1.9-21.1 1.9l-3.5 17.3h51.2zm4 21.3s1.6-16.8-4.8-24.4m-54.4 24.4s-1.6-16.8 4.8-24.4m49.6-6.5c2.1 2.7 10.8 9.7 9.4 30.2M276.6 9.6s-10.8 9.7-9.4 30.2m274.2 8.1S513 10.3 324.9 9.7M61.6 47.9S90 10.3 278.1 9.7"/><path id="Shape_2_" class="st1" d="M492.7 282.5H130.2C53.8 282.5 22.9 232 22.9 195v-47.5c0-64.6 44.5-99.2 85.6-99.2h387.8c41.1 0 85.6 35.3 85.6 103.2v29.4c0 60.9-46.1 101.6-89.2 101.6z"/></svg>