<svg id="Layer_1" xmlns="http://www.w3.org/2000/svg" viewBox="0 0 600 272.5"><style>.st0{fill:none;stroke:#fff}.st1{opacity:.58;fill:#093454;enable-background:new}</style><path class="st0" d="M599.7 23.3v227c0 12.2-9.9 22.2-22.2 22.2H23.7c-12.2 0-22.2-9.9-22.2-22.2v-227C1.6 11 11.5 1.1 23.7 1.1h553.8c12.2 0 22.2 9.9 22.2 22.2zm-40.6 101.6c10.9 0 19.8 8.9 19.8 19.8s-8.9 19.8-19.8 19.8-19.8-8.9-19.8-19.8 8.8-19.8 19.8-19.8zM31.2 95.2c3.8 0 6.9 3.1 6.9 6.9S35 109 31.2 109s-6.9-3.1-6.9-6.9c0-3.8 3.1-6.9 6.9-6.9zm0 65.4c1.6 0 3 1.3 3 3s-1.3 3-3 3c-1.6 0-3-1.3-3-3s1.4-3 3-3zm-2.9-8.9V120c0-1.6 1.3-3 3-3 1.6 0 3 1.3 3 3v31.7c0 1.6-1.3 3-3 3-1.7-.1-3-1.4-3-3z"/><path id="path-1_1_" class="st1" d="M523.4 34.9v202.9c0 10.9-7.7 19.8-17.1 19.8H77.9c-9.5 0-17.1-8.9-17.1-19.8V34.9c0-10.9 7.7-19.8 17.1-19.8h428.4c9.5 0 17.1 8.8 17.1 19.8z"/></svg>