<svg id="Layer_1" xmlns="http://www.w3.org/2000/svg" viewBox="0 0 600.8 328.5"><style>.st0{opacity:.58;fill:#093454;enable-background:new}.st1{fill:none;stroke:#fff;stroke-miterlimit:10}</style><path class="st0" d="M477.6 289.1H142.5c-67.7 0-85-38.3-85-76.5v-81.1c0-66.8 29.6-88 65.9-88h357.5c36.5 0 65.9 25 65.9 95.3V198c0 63-31.1 91.1-69.2 91.1z"/><path class="st1" d="M124.9 36.8h148V22.3c-67.8.5-129.9 4.4-148 14.5zm205-14.2v14.2h150c-19.7-8.6-82.3-12.9-150-14.2zm0 14.2H273V5.1c0-.7 1.8-1.1 4.1-1.1h48.8c2.3 0 4.1.5 4.1 1.1v31.7h-.1zm146.6 259H144.6c-70 0-95.3-38.7-95.3-79.7v-86.8c0-71.4 37.9-92.7 75.5-92.7h355c37.6 0 75.5 25.3 75.5 100.3v63.4c.1 67.6-39.3 95.5-78.8 95.5zM94 327.4c-7.6 0-12.5-3.6-12.5-3.6s7.2 1 7.2-16.7c0-17.6-.3-22.7-.3-22.7m-39.1-81.7s-6.7.8-6.7 29.6 15.1 91.5 49.9 94.8c28.5 2.5 24.9-33.3 24.9-33.3m-81.8-8.2s3.9-2.6 2-18.8c-2-16-19.2-174.2-19.2-174.2S5.2 81 3.9 78s5.2 51.5 7.3 77.1S21.6 255.5 23.7 269c2.3 13.8 11.9 16.6 11.9 16.6zm.2-.2s9.9 1.1 9.9-7C45.7 270 26.8 87 26.8 87L18 92.9m9.2-6.1L15.4 72.3l-12 4.6M53 95.2s-14.3-3.4-14.3 12.1v39.1c0 14.7-3.6 30.1 10.7 30.1m-11-22.3l-5-1.1m5.5-43l-10.1 2m481.4 216.4c7.6 0 12.5-3.6 12.5-3.6s-7.2 1-7.2-16.7c0-17.6.3-22.7.3-22.7m39.1-81.7s6.7.8 6.7 29.6-15.1 91.5-49.9 94.8c-28.5 2.5-24.9-33.3-24.9-33.3m81.8-8.2s-3.9-2.6-2-18.8c2-16 19.2-174.2 19.2-174.2s13.2-11.6 14.5-14.5-5.2 51.5-7.3 77.1c-2.1 25.7-10.4 100.3-12.5 113.9-2.3 13.7-11.9 16.5-11.9 16.5zm-.2-.2s-9.9 1.1-9.9-7c0-8.3 18.9-191.4 18.9-191.4l8.8 5.9m-9.2-6l11.7-14.5 12 4.6m-49.5 18.2s14.3-3.4 14.3 12.1v39.1c0 14.7 3.6 30.1-10.7 30.1m11-22.4l5-1m-5.5-43l10.1 2"/></svg>