<svg id="Layer_1" xmlns="http://www.w3.org/2000/svg" viewBox="0 0 600 278.3"><style>.st0{fill:none;stroke:#fff;stroke-miterlimit:10}.st1{opacity:.58;fill:#093454;enable-background:new}</style><path class="st0" d="M489.7 275.1H118.9c-78.1 0-106.6-58.8-106.6-98.3v-62.5c0-69 31.6-89.6 73.7-89.6h422.2c42.1 0 69.5 24.5 69.5 97v40c-.1 65.1-44 113.4-88 113.4zm0 3.2H118.9C40.8 278.3.6 233.4.6 193.7v-87c0-69 43.4-87.5 85.5-87.5l422.2-1.1c42.1 0 82.3 23.5 82.3 96.1v61.2c-.2 65.4-56.9 102.9-100.9 102.9zM271.9 19s8.6-8.1 21.1-8.1 20.6 7.6 20.6 7.6M480 18S454.2 2.3 295.3 2.3s-182.6 17-182.6 17m477.7 94s3.2-.2 5 0c1.8.2 2.6.5 2.6 4.7s-2.8 49.2-2.8 57c0 7.8-4.4 10.7-4.4 10.7"/><path class="st1" d="M485.1 265.4H124.4c-76 0-103.7-54.6-103.7-91.2v-58c0-64 30.8-83.1 71.8-83.1h410.8c41 0 67.7 22.7 67.7 90.1v37.1c-.2 60.4-42.9 105.1-85.9 105.1z"/></svg>