<svg id="Layer_1" xmlns="http://www.w3.org/2000/svg" viewBox="0 0 600 307.2"><style>.st0,.st1{fill:none;stroke:#fff}.st1{opacity:.58;fill:#093454;enable-background:new}</style><path class="st0" d="M600 32.6v242.2c0 17.8-14.5 32.3-32.3 32.3H33.6c-17.8 0-32.3-14.5-32.3-32.3V32.6C1.3 14.8 15.8.3 33.6.3h533.9c18 0 32.5 14.3 32.5 32.3zm-39.1 149.2v-54.4c0-5.9 4.8-10.8 10.8-10.8 5.9 0 10.8 4.8 10.8 10.8v54.4c0 5.9-4.8 10.8-10.8 10.8-6-.2-10.8-4.9-10.8-10.8z"/><path id="path-1_1_" class="st1" d="M544.3 46.8v217.3c0 16-11.9 28.9-26.6 28.9H80c-14.7 0-26.6-12.9-26.6-28.9V46.8c0-16 11.9-28.9 26.6-28.9h438c14.5-.2 26.3 12.7 26.3 28.9z"/></svg>