<svg id="Layer_1" xmlns="http://www.w3.org/2000/svg" viewBox="0 0 558.6 400"><style>.st0,.st1{stroke-miterlimit:10;enable-background:new}.st0{stroke:#fff;fill:none}.st1{opacity:.58;fill:#093454}</style><path class="st0" d="M303.8 392.4l-60.9.2C7.1 391.6 3 316.6 3 266.8v-78.6c0-86.8 85.1-114 170.6-113.5l201.8.8c106.9 1.3 177 30.9 177 122.1v50.3c-.2 81.8-24.3 144.3-248.6 144.5zm37.5-319.1l-5.1-51.8H216.7l-4.6 51.1m122.9-56l-7-14.1S309.4 0 274.1 0C238.6 0 224 2 224 2l-7 14.6h118zm-78.5 18.2c-9.5 0-14.6 2.3-14.6 8.3V57s-1 10.3 13.1 10.3h44.5s11.1.3 11.1-9.8V42.9s-1.5-7.8-12.4-7.8c-11 .1-32.2-.3-41.7-.3zm80-6.6s7.5 9 24.7 14.9c17.3 6.1 44.8 15.4 56.4 33.7M215.2 26.5s-7.5 9-24.7 14.9-44.8 15.4-56.4 33.7"/><path class="st1" d="M302.7 386.2l-58.2.2c-225.3-1-229.3-72.6-229.3-120.2V191c0-82.9 81.3-108.9 163-108.5l192.8.8c102.1 1.3 169.2 29.5 169.2 116.7v48c-.2 78.3-23.2 138.1-237.5 138.2z"/></svg>