<svg xmlns="http://www.w3.org/2000/svg" width="32" height="32" viewBox="0 0 32 32"><path fill="#14273c" d="M2.17.542h9.763v11.39H2.17V.542zm14.644 0h9.763v11.39h-9.763V.542zM2.17 15.729h9.763v11.39H2.17v-11.39z"/><path fill="#008bf2" d="M1.247.271C.705.325.271.759.271 1.301v10.468c0 .597.488 1.03 1.03 1.03h10.468c.597 0 1.03-.488 1.03-1.03V1.301c0-.597-.488-1.03-1.03-1.03H1.247zM16 .271c-.597 0-1.03.488-1.03 1.03v10.468c0 .597.488 1.03 1.03 1.03h10.468c.597 0 1.03-.488 1.03-1.03V1.301c0-.542-.434-.976-.976-1.03H16zM2.386 2.386h8.407v8.407H2.386V2.386zm14.644 0h8.407v8.407H17.03V2.386zM1.247 14.97c-.542.054-.976.488-.976 1.03v10.468c0 .597.488 1.03 1.03 1.03h10.468c.597 0 1.03-.488 1.03-1.03V16c0-.597-.488-1.03-1.03-1.03H1.247zm14.753 0c-.597 0-1.03.488-1.03 1.03v10.468c0 .597.488 1.03 1.03 1.03h2.603c.38 0 .705-.217.922-.542s.217-.705 0-1.03c-.217-.325-.542-.542-.922-.542H17.03v-8.407h8.407v1.573c0 .38.217.705.542.922s.705.217 1.03 0c.325-.217.542-.542.542-.922v-2.603c0-.542-.434-.976-.976-1.03H15.999zM2.386 17.03h8.407v8.407H2.386V17.03zm23.973 4.177c-.542.054-.922.542-.922 1.085v3.146h-3.254c-.38 0-.705.217-.868.542s-.163.759.054 1.03.542.488.922.488h3.146v3.146c0 .38.217.705.542.922s.705.217 1.03 0c.325-.217.542-.542.542-.922v-3.146h3.146c.38 0 .705-.217.922-.542s.217-.705 0-1.03c-.217-.325-.542-.542-.922-.542h-3.146v-3.146c0-.325-.108-.597-.325-.814-.271-.108-.542-.217-.868-.217z"/></svg>