<svg xmlns="http://www.w3.org/2000/svg" width="41" height="32" viewBox="0 0 41 32"><path fill="#14273c" d="M1.745 1.745H38.4c.643 0 1.164.521 1.164 1.164v27.345c0 .643-.521 1.164-1.164 1.164H1.745a1.164 1.164 0 0 1-1.164-1.164V2.909c0-.643.521-1.164 1.164-1.164z"/><path fill="#008bf2" d="M2.764.167A2.779 2.779 0 0 0 0 2.931v27.643c0 .509.413.921.921.921h38.7a.921.921 0 0 0 .921-.921V2.931A2.779 2.779 0 0 0 37.778.167H2.764zm0 1.843h35.014a.9.9 0 0 1 .921.921v3.686H1.842V2.931a.9.9 0 0 1 .921-.921zm1.843 1.382a.921.921 0 0 0 0 1.842H12.9a.921.921 0 0 0 0-1.842H4.607zM1.843 8.46H38.7v21.193H1.843V8.46zm20.156 3.239c-.362.045-.683.296-.777.648l-3.686 12.9c-.132.467.164 1.029.633 1.152.471.123 1.02-.181 1.152-.648l3.686-12.9c.179-.589-.398-1.236-1.008-1.152zm-6.882 1.814a.927.927 0 0 0-.403.144l-7.371 4.607a.927.927 0 0 0 0 1.569l7.371 4.607c.411.256 1.025.108 1.281-.302s.109-1.011-.302-1.267l-6.119-3.815 6.119-3.83c.366-.21.552-.694.418-1.094s-.575-.673-.993-.619zm10.179 0c-.396.011-.764.308-.864.691s.077.82.418 1.022l6.119 3.83-6.119 3.815c-.411.256-.544.856-.288 1.267s.856.559 1.267.302l7.371-4.607c.618-.387.533-1.241 0-1.569l-7.371-4.607a.935.935 0 0 0-.533-.144z"/></svg>