<svg xmlns="http://www.w3.org/2000/svg" width="32" height="32" viewBox="0 0 32 32"><path fill="#14273c" d="M31.725 16.149c0 8.677-7.04 15.712-15.725 15.712S.275 24.827.275 16.149C.275 7.472 7.315.437 16 .437s15.725 7.034 15.725 15.712z"/><path fill="#008bf2" d="M6.146 22.329c-.175-.314-.384-.628-.524-.943-.524-.978-1.747-1.397-2.726-.873s-1.398 1.711-.874 2.723c.21.419.454.873.734 1.257.384.594 1.048.943 1.677.943.384 0 .769-.105 1.083-.314a2.029 2.029 0 0 0 .629-2.793zm4.368 3.98c-.315-.175-.629-.349-.943-.559-.943-.594-2.201-.314-2.796.594-.594.943-.314 2.2.594 2.793.419.279.839.524 1.258.733.28.14.629.209.943.209.734 0 1.433-.384 1.782-1.082.524-.943.14-2.2-.839-2.688zm5.102-21.577h.105c1.118 0 2.027-.908 2.027-2.025S16.839.682 15.721.682h-.175c-1.118.035-1.992 1.013-1.922 2.13.07 1.082.943 1.92 1.992 1.92zm1.013 22.799c-.28.035-.559.035-.874.035h-.559a2.054 2.054 0 0 0-2.132 1.92c-.035 1.117.804 2.06 1.922 2.095h.769c.384 0 .769 0 1.153-.035a1.982 1.982 0 0 0 1.852-2.165c-.07-1.082-1.048-1.92-2.132-1.85zM2.407 18.837c1.118-.035 1.992-1.013 1.922-2.095v-.663a2.028 2.028 0 0 0-4.054 0v.873c.035 1.082.943 1.92 2.027 1.92h.105v-.035zm26.872-1.152c-1.083-.279-2.201.349-2.481 1.431a9.196 9.196 0 0 1-.594 1.641c-.454 1.013 0 2.2 1.013 2.654a2.4 2.4 0 0 0 .839.175 2.07 2.07 0 0 0 1.852-1.187c.314-.733.594-1.501.769-2.235a2.004 2.004 0 0 0-1.398-2.479zM8.941 6.582c.349 0 .699-.07 1.048-.279l.105-.07c.978-.559 1.328-1.781.769-2.758s-1.782-1.327-2.761-.768l-.21.105a1.99 1.99 0 0 0-.664 2.758c.384.663 1.013 1.013 1.712 1.013zm22.784-2.095c0-1.117-.909-2.025-1.992-2.025h-7.268a2.028 2.028 0 0 0-2.027 2.025v7.227a2.028 2.028 0 0 0 4.054 0V8.781a11.68 11.68 0 0 1 2.271 4.26c.105.419.14.559.175.838.175.943 1.048 1.606 1.957 1.606.14 0 .28 0 .419-.035 1.083-.21 1.782-1.292 1.572-2.374-.035-.279-.14-.628-.28-1.152-.559-1.955-1.538-3.806-2.796-5.412h1.887a2.028 2.028 0 0 0 2.027-2.025zm-8.701 20.46c-.454.384-.909.733-1.433 1.013-.943.559-1.258 1.816-.699 2.758a2.021 2.021 0 0 0 1.712.978c.349 0 .699-.07 1.048-.279a15.303 15.303 0 0 0 1.957-1.397c.839-.698.978-1.99.245-2.863-.664-.803-1.957-.908-2.83-.209zM3.036 11.261c.943.489 2.097.314 2.761-.768l.07-.14c.559-.943.245-2.2-.699-2.758s-2.201-.244-2.761.733l-.105.175c-.559.978-.245 2.235.734 2.758z"/></svg>