<svg xmlns="http://www.w3.org/2000/svg" width="31" height="32" viewBox="0 0 31 32"><path fill="#008bf2" d="M25.611 31.484H5.322c-2.401 0-4.348-1.972-4.348-4.404V15.336c0-2.433 1.946-4.404 4.348-4.404h5.797v2.936H5.322c-.8 0-1.449.658-1.449 1.468V27.08c0 .81.649 1.468 1.449 1.468h20.289c.8 0 1.449-.658 1.449-1.468V15.336a1.46 1.46 0 0 0-1.449-1.468h-5.797v-2.936h5.797c2.401 0 4.348 1.972 4.348 4.404V27.08c0 2.433-1.946 4.404-4.348 4.404zm-8.695-8.808h-2.898V8.006H8.221l7.246-7.35 7.246 7.35h-5.797v14.67z"/></svg>